<svg xmlns="http://www.w3.org/2000/svg" viewBox="0 0 193.38 226.81"><title>LETUSymbol-Blk</title><g id="Layer_2" data-name="Layer 2"><g id="Layer_2-2" data-name="Layer 2"><path fill="#a9b1ba" d="M177.64,54.85H146.12c-12.45-19.3-32.55-32.33-45.59-39.27l-3.84,0c-4.47,0-8.89.11-13.22.29C91,19.89,103,26.73,112.44,34.3a119.2,119.2,0,0,1,20.25,20.55H99.52a47.33,47.33,0,0,1,3.27,9.5h36.43a95.09,95.09,0,0,1,14.23,52.32c-.94,46.14-28.1,75-43.12,87.53a122.7,122.7,0,0,0,38.58-32.37c13.73-24.73,24.67-62.84,2.5-107.48h26.05Q177.58,59.7,177.64,54.85Z"/><path fill="#a9b1ba" d="M192.81,12.92l-6.06-1.63A382,382,0,0,0,96.69,0,382.43,382.43,0,0,0,6.63,11.29L.57,12.92,0,13.07v6.87C0,90.82,0,133.61,26.56,173.65s66,51.94,67.62,52.43l2.29.67.22.06.21-.06,2.3-.67c1.67-.49,41.1-12.43,67.62-52.43s26.56-82.83,26.56-153.71V13.07Zm-7.33,6.17v.81c0,69.4,0,111.29-25.25,149.36-25,37.64-62.86,49.09-63.24,49.2l-.3.09-.3-.09c-.38-.11-38.29-11.55-63.25-49.2C7.9,131.19,7.9,89.3,7.9,19.9v-.81l.78-.21c.41-.11,41.28-11,88-11s87.6,10.91,88,11Z"/><path fill="#a9b1ba" d="M32.39,21.67c-5.52,1-10.17,2-13.75,2.75-1,.68-2.05,1.36-3.05,2.07v5.56A106.33,106.33,0,0,1,32.39,21.67Z"/><path fill="#a9b1ba" d="M15.74,54.85q.06,4.27.15,8.4c.5-.86,1-1.73,1.49-2.57H38.8A141.8,141.8,0,0,0,33.21,77h4.67a137.73,137.73,0,0,1,5.79-16.31H76.83V77h5.11V60.68H94.42c-.48-1.24-.94-2.3-1.19-2.84l-.84-1.76H81.94V23l-1.76-1L76.83,20.2V56.08h-31a139.55,139.55,0,0,1,26.73-38.2L70.29,16.7c-5.05.41-10,.89-14.62,1.45A113.66,113.66,0,0,0,15.74,54.85ZM66.3,17.93A144,144,0,0,0,40.83,56.08H20.34A109,109,0,0,1,66.3,17.93Z"/><path fill="#a9b1ba" d="M123.84,71.32h-4.73q.94,2.81,1.75,5.67h4.68C125,75.08,124.45,73.19,123.84,71.32Z"/><path fill="#a9b1ba" d="M113.85,47.89c-1.15-2.14-2.33-4.24-3.58-6.31-.72-.61-1.43-1.24-2.18-1.83-2.67-2.14-5.56-4.2-8.5-6.18a138.5,138.5,0,0,1,9.15,14.32Z"/><path fill="#a9b1ba" d="M139.84,112.47a18.92,18.92,0,0,1-2.13,5.24h8.71c0-.4.06-.78.07-1.19,0-1.35,0-2.7-.05-4Z"/><path fill="#a9b1ba" d="M130.4,123.78a18,18,0,0,1-4.58,1,136.76,136.76,0,0,1-12.3,47.84H81.94V124H76.83v48.63H45.25A136.85,136.85,0,0,1,32.91,124H28.38A141.49,141.49,0,0,0,34.12,156c1.66,3.05,3.46,6.06,5.43,9A113.36,113.36,0,0,0,49,177.27H76.83v23.35c1.77,1.09,3.48,2.08,5.11,3V177.27h29.37a140,140,0,0,1-21,30.52c1.65.75,3.08,1.35,4.29,1.83a144,144,0,0,0,21.75-32.35H126c1.06-1.48,2.12-3,3.15-4.6H118.45A141.13,141.13,0,0,0,130.4,123.78Z"/><path fill="#a9b1ba" d="M172.32,71.32c2.07,4.77,2.73,6.08,4.59,11.08.28-6.64.28-9.34.33-11.08Z"/><path fill="#a9b1ba" d="M170.4,117.71h2.24q.51-2.58,1-5.24h-3.23C170.41,114.24,170.43,116,170.4,117.71Z"/><path fill="#a9b1ba" d="M127.08,17c-3.82-.35-7.77-.64-11.79-.88.91.59,1.85,1.24,2.77,1.86a105.91,105.91,0,0,1,36.26,23.72c2,2,3.85,4,5.66,6.17h5.83A110.8,110.8,0,0,0,127.08,17Z"/><path fill="#a9b1ba" d="M45,119.09H19.28v-2.34l.43,0c1.52-.12,2.43-.4,2.73-.86s.45-1.81.45-4V89.2c0-2.23-.14-3.57-.44-4s-1.2-.74-2.74-.88l-.43,0V81.94H33.49v2.34l-.41,0c-1.55.14-2.47.43-2.77.88s-.44,1.79-.44,4v22.61c0,2.78.3,4.26.89,4.44a18.48,18.48,0,0,0,3.62.2H37.2a25.83,25.83,0,0,0,3.26-.2,1.13,1.13,0,0,0,1-.63,28.9,28.9,0,0,0,.2-4.89l0-.48H45Z"/><path fill="#a9b1ba" d="M73.14,119.09H47.64v-2.34l.42,0c1.52-.12,2.44-.4,2.74-.86s.45-1.81.45-4V89.2c0-2.23-.15-3.57-.44-4s-1.21-.74-2.75-.88l-.42,0V81.94H72.17v6.65H68.82l0-.47c0-.86-.07-1.36-.07-1.51,0-.94-.2-1.54-.6-1.81a5.82,5.82,0,0,0-2.7-.4H58.23V98.51h4.65A16,16,0,0,0,66,98.36c.26-.1.41-.87.44-2.32l0-.47h2.37v8H66.45l0-.45c0-1.32-.25-2.07-.64-2.23a9.66,9.66,0,0,0-2.89-.25H58.09v11.14c0,2.78.3,4.26.89,4.44a18.29,18.29,0,0,0,3.6.2h2.81c2.25,0,3.51-.12,3.79-.36s.47-1.41.59-3.5l0-.48h3.35Z"/><path fill="#a9b1ba" d="M86.52,84.4H81.07a3.92,3.92,0,0,0-2.7.64c-.4.43-.6,1.74-.62,3.93l0,.7H74.39V81.94h31.24v7.73h-3.35l0-.7c0-2.19-.22-3.5-.62-3.93a3.92,3.92,0,0,0-2.7-.64H93.5v27.41c.1,2.49.27,3.9.52,4.22s1.32.55,3.25.7l.4,0v2.34H82.34v-2.34l.4,0c1.84-.13,2.93-.42,3.27-.86s.51-1.79.51-4Z"/><path fill="#a9b1ba" d="M107.92,81.94h14.21v2.34l-.41,0c-1.54.14-2.46.43-2.76.88s-.44,1.79-.44,4v16.06c0,4.46.56,7.62,1.7,9.49s3,2.81,5.75,2.81q4.32,0,6.29-3c1.3-2,2-5.16,2-9.53V89.2c0-2.23-.15-3.57-.44-4s-1.22-.74-2.77-.88l-.41,0V81.94h10.51v2.34l-.41,0c-1.52.14-2.42.43-2.71.88s-.43,1.79-.43,4v15.26q0,8-3,11.77T125.06,120q-13.52,0-13.52-15.06V89.37c0-2.24-.15-3.6-.45-4.06s-1.22-.76-2.74-.86l-.43,0Z"/></g></g></svg>